<svg width="42" height="41" viewBox="0 0 42 41" fill="none" xmlns="http://www.w3.org/2000/svg">
<path d="M35.7352 4.48438H6.26648C5.55779 4.48438 4.98523 5.05693 4.98523 5.76562V35.2344C4.98523 35.9431 5.55779 36.5156 6.26648 36.5156H35.7352C36.4439 36.5156 37.0165 35.9431 37.0165 35.2344V5.76562C37.0165 5.05693 36.4439 4.48438 35.7352 4.48438ZM32.0356 13.8335H29.4771C27.4712 13.8335 27.0828 14.7864 27.0828 16.1878V19.2748H31.8715L31.2469 24.1075H27.0828V36.5156H22.0899V24.1115H17.9138V19.2748H22.0899V15.7113C22.0899 11.5753 24.6164 9.32109 28.308 9.32109C30.0777 9.32109 31.5952 9.45322 32.0396 9.51328V13.8335H32.0356Z" fill="white"/>
</svg>
