<svg width="42" height="41" viewBox="0 0 42 41" fill="none" xmlns="http://www.w3.org/2000/svg">
<path d="M35.7365 4.48438H6.2677C5.55901 4.48438 4.98645 5.05693 4.98645 5.76562V35.2344C4.98645 35.9431 5.55901 36.5156 6.2677 36.5156H35.7365C36.4451 36.5156 37.0177 35.9431 37.0177 35.2344V5.76562C37.0177 5.05693 36.4451 4.48438 35.7365 4.48438ZM14.4877 31.779H9.73508V16.4921H14.4877V31.779ZM12.1134 14.4021C11.5686 14.4021 11.036 14.2405 10.583 13.9378C10.13 13.6351 9.7769 13.2049 9.5684 12.7015C9.35991 12.1982 9.30536 11.6443 9.41165 11.11C9.51794 10.5756 9.7803 10.0848 10.1655 9.69951C10.5508 9.31426 11.0416 9.0519 11.576 8.94561C12.1103 8.83932 12.6642 8.89387 13.1676 9.10236C13.6709 9.31086 14.1012 9.66394 14.4038 10.1169C14.7065 10.5699 14.8681 11.1025 14.8681 11.6474C14.8641 13.1688 13.6309 14.4021 12.1134 14.4021ZM32.2811 31.779H27.5324V24.3438C27.5324 22.57 27.5004 20.2918 25.062 20.2918C22.5916 20.2918 22.2113 22.2217 22.2113 24.2156V31.779H17.4666V16.4921H22.0231V18.5821H22.0871C22.7198 17.381 24.2693 16.1117 26.5835 16.1117C31.3962 16.1117 32.2811 19.2788 32.2811 23.3948V31.779V31.779Z" fill="white"/>
</svg>
