<svg width="42" height="41" viewBox="0 0 42 41" fill="none" xmlns="http://www.w3.org/2000/svg">
<path d="M37.6571 10.182C36.4319 10.7105 35.0986 11.0908 33.7252 11.239C35.1511 10.3919 36.2188 9.05365 36.7282 7.47531C35.3902 8.27124 33.9245 8.82936 32.3959 9.12492C31.7571 8.44196 30.9845 7.89788 30.1261 7.52659C29.2678 7.1553 28.3423 6.96475 27.4071 6.96681C23.6234 6.96681 20.5804 10.0338 20.5804 13.7975C20.5804 14.326 20.6445 14.8545 20.7486 15.363C15.0831 15.0667 10.0301 12.3601 6.67085 8.21603C6.05875 9.26151 5.73799 10.4519 5.74194 11.6634C5.74194 14.0337 6.94712 16.1237 8.78491 17.3529C7.70187 17.3103 6.64419 17.0126 5.6979 16.4841V16.5682C5.6979 19.8874 8.04419 22.6381 11.1712 23.2707C10.5841 23.4232 9.98011 23.5013 9.37349 23.5029C8.92905 23.5029 8.50864 23.4589 8.08423 23.3988C8.94907 26.1055 11.4675 28.0714 14.4665 28.1355C12.1202 29.9733 9.1813 31.0543 5.99019 31.0543C5.41763 31.0543 4.88911 31.0343 4.34058 30.9702C7.36753 32.9121 10.959 34.0332 14.8268 34.0332C27.3831 34.0332 34.2538 23.6311 34.2538 14.6023C34.2538 14.306 34.2538 14.0097 34.2337 13.7134C35.563 12.7404 36.7282 11.5353 37.6571 10.182Z" fill="white"/>
</svg>
